<?xml version="1.0" encoding="UTF-8" standalone="no"?>
<!-- Created with Inkscape (http://www.inkscape.org/) -->

<svg
   xmlns:dc="http://purl.org/dc/elements/1.1/"
   xmlns:cc="http://creativecommons.org/ns#"
   xmlns:rdf="http://www.w3.org/1999/02/22-rdf-syntax-ns#"
   xmlns:svg="http://www.w3.org/2000/svg"
   xmlns="http://www.w3.org/2000/svg"
   xmlns:sodipodi="http://sodipodi.sourceforge.net/DTD/sodipodi-0.dtd"
   xmlns:inkscape="http://www.inkscape.org/namespaces/inkscape"
   width="210mm"
   height="297mm"
   viewBox="0 0 210 297"
   version="1.1"
   id="svg8"
   inkscape:version="0.92.5 (2060ec1f9f, 2020-04-08)"
   sodipodi:docname="grabolo-shapes.svg">
  <defs
     id="defs2" />
  <sodipodi:namedview
     id="base"
     pagecolor="#ffffff"
     bordercolor="#666666"
     borderopacity="1.0"
     inkscape:pageopacity="0"
     inkscape:pageshadow="2"
     inkscape:zoom="0.35"
     inkscape:cx="127.17661"
     inkscape:cy="443.96354"
     inkscape:document-units="mm"
     inkscape:current-layer="layer1"
     showgrid="false"
     inkscape:window-width="1848"
     inkscape:window-height="1016"
     inkscape:window-x="72"
     inkscape:window-y="27"
     inkscape:window-maximized="1"
     inkscape:pagecheckerboard="true" />
  <metadata
     id="metadata5">
    <rdf:RDF>
      <cc:Work
         rdf:about="">
        <dc:format>image/svg+xml</dc:format>
        <dc:type
           rdf:resource="http://purl.org/dc/dcmitype/StillImage" />
        <dc:title></dc:title>
      </cc:Work>
    </rdf:RDF>
  </metadata>
  <g
     inkscape:label="Layer 1"
     inkscape:groupmode="layer"
     id="layer1">
    <path
       style="fill:#ffffff;stroke:#000000;stroke-width:3.77952766;stroke-miterlimit:4;stroke-dasharray:none;stroke-opacity:1;fill-opacity:1"
       d="M 457.14258 533.94727 L 457.14258 1068.2344 L 1022.8574 1068.2344 L 1022.8574 533.94727 L 457.14258 533.94727 z M 855.54492 570.57812 C 855.82665 570.61592 859.1168 570.62619 862.85547 570.60352 C 873.1119 570.53926 878.73161 571.23491 885.10352 573.35742 C 895.0648 576.67551 896.62727 577.48618 903.58984 582.94336 C 910.91994 588.68858 918.47003 599.2104 921.6875 608.16406 C 925.17899 617.88006 926.57858 620.72973 929.26953 623.5957 C 936.44088 631.23349 942.17306 633.73639 963.29102 638.45898 C 970.60115 640.09382 978.44829 641.85596 980.72852 642.375 C 989.32947 644.33249 994.14014 652.64167 990.32422 658.94531 L 988.65234 661.70508 L 955.65625 665.84766 C 937.50821 668.12603 919.56549 670.63306 915.7832 671.41992 C 902.10509 674.26541 891.69203 679.82632 885.1875 687.75781 C 879.44262 694.76313 877.64339 700.29859 877.60938 711.05078 C 877.57895 721.00201 880.95252 736.79788 884.13477 741.60352 C 885.13241 743.10996 886.04482 745.11074 886.1582 746.05078 C 886.37674 747.83079 892.62957 758.49904 899.08984 768.11133 C 903.61201 774.83991 912.42531 790.749 914.38477 795.7207 C 915.16233 797.69373 917.78325 804.27688 920.20898 810.35156 C 924.05889 819.99287 924.82624 823.07656 926.24609 834.61523 C 929.9419 864.64747 925.45381 893.22785 912.98828 919.04297 C 907.36204 930.69461 889.66993 951.77666 879.98633 958.36914 C 878.70794 959.23953 877.47917 960.29979 877.25391 960.72461 C 876.64597 961.87275 859.0794 972.91533 852 976.59961 C 836.64 984.59346 829.7101 987.63414 818.14062 991.45898 C 806.34888 995.45686 835.66724 1002.6784 849.72852 1011.4277 C 910.60881 1046.356 838.02355 1042.045 799.875 1040.3027 C 789.33567 1040.2147 777.08569 1040.1411 772.65234 1040.1387 C 768.21911 1040.1364 760.28128 1040.1104 755.01367 1040.084 C 744.50583 1040.0292 744.83801 1040.0262 730.15039 1040.3887 C 724.50684 1040.5278 719.48237 1040.4536 718.98438 1040.2246 C 718.4862 1039.9952 711.36491 1039.9263 703.16016 1040.0703 C 694.95537 1040.2139 686.58263 1040.1043 684.55469 1039.8262 C 682.52682 1039.5484 675.45075 1039.513 668.83008 1039.748 C 657.29742 1040.159 650.87208 1039.7375 648.49219 1038.4121 C 637.24923 1031.5244 650.12317 1021.6471 658.34961 1015.9316 C 665.22676 1011.318 704.99575 998.24411 693.25 992.92578 C 692.16134 992.83428 688.43156 991.78695 684.96094 990.59961 C 681.49039 989.41212 675.11478 987.33575 670.79297 985.98438 C 666.471 984.63308 662.74454 983.20393 662.51172 982.80859 C 662.27837 982.41344 661.56511 982.15381 660.92773 982.23242 C 659.72879 982.3796 649.21862 977.33141 633.62305 969.11914 C 619.26126 961.55642 590.88314 939.1901 570.39844 919.28711 C 565.73416 914.75519 561.83326 910.67717 553.58398 901.71289 C 551.0641 898.97459 548.49056 896.24873 547.86523 895.65625 C 547.23991 895.06381 546.69052 894.34256 546.66406 894.05078 C 546.62835 893.75953 544.8516 891.7322 542.71484 889.54688 C 540.57809 887.3614 534.48716 879.83273 529.17969 872.81445 C 510.09345 847.57605 495.90627 825.154 495.14258 819.02734 C 494.42719 813.97619 492.46165 808.61495 494.91211 802.85352 C 496.65886 800.83381 503.66184 798.82385 505.37695 799.84961 C 507.90568 801.36203 533.04638 807.85161 539.66992 808.70117 C 572.71615 812.93965 609.3258 807.7595 654.08984 792.51172 C 687.42913 781.15537 690.35558 780.3381 710.60156 776.73047 C 737.62239 771.91554 758.03569 771.4042 786.92383 774.81836 C 792.26559 775.44962 798.15741 776.37426 800.01758 776.87305 C 802.95733 777.66138 803.58903 777.5393 804.83594 775.94336 C 806.09705 774.32965 806.03341 773.36495 804.32227 767.97852 C 803.25141 764.60771 799.52574 755.62655 796.04102 748.01953 C 789.97809 734.78442 785.17635 723.5184 783.39453 718.33984 C 782.9371 717.01066 782.08534 715.07537 781.5 714.03906 C 780.91459 713.00264 779.07785 707.33331 777.41992 701.44141 C 775.76199 695.5495 773.70165 688.35236 772.83984 685.44727 C 768.56546 671.03835 768.31806 645.95425 772.31445 632.125 C 775.39326 621.38404 778.20525 609.17518 794.28906 595.31055 C 806.1335 584.82077 822.01073 577.68247 844.23828 572.85352 C 850.17535 571.56383 855.26297 570.54033 855.54492 570.57812 z "
       transform="scale(0.26458333)"
       id="path4638"
       inkscape:export-filename="/home/danman/path4638.png"
       inkscape:export-xdpi="96"
       inkscape:export-ydpi="96" />
    <path
       style="fill:#ffffff;stroke:#000000;stroke-width:3.77952766;stroke-miterlimit:4;stroke-dasharray:none;stroke-opacity:1;fill-opacity:1"
       d="M 0 616.80469 L 0 1073.9473 L 371.42773 1073.9473 L 371.42773 616.80469 L 0 616.80469 z M 188.20117 645.68945 C 201.03562 645.70808 205.83097 646.70174 216.66602 650.68945 C 235.52692 657.63105 250.88794 672.96939 256.20312 690.17188 C 257.75054 695.1799 258.16602 699.43741 258.16602 710.25 L 258.16602 723.9707 C 258.47677 722.09753 263.78256 724.06504 265.16602 726.05859 C 268.74103 726.06173 274.81604 726.85718 278.66602 727.82617 C 285.14065 729.45579 286.19586 730.12217 292.70508 736.70312 C 300.36788 744.45032 304.6631 752.00161 305.64453 759.45117 C 306.32795 764.6385 304.67168 772.65313 302.55469 774.41016 C 300.18897 776.37347 301.01242 778.06654 304.66602 778.75195 C 310.054 779.79832 315.18187 783.98893 318.6875 788.82812 C 323.04329 793.76237 330.31737 808.47073 333.02344 817.81641 C 335.95348 827.93549 337.40587 840.50218 336.65234 849.23047 C 334.62058 872.76525 316.86802 896.79749 294.39453 906.43555 C 287.44693 909.41514 278.94426 912.17113 275.06836 912.70117 C 259.73115 914.79858 252.40396 915.30103 237.13867 915.30859 C 218.02379 915.31687 216.07403 915.81192 214.02734 921.16797 C 212.76041 924.48352 212.82138 939.5266 214.13477 947.67383 C 214.67947 951.05288 215.31601 955.25205 215.54883 957.00586 C 215.78172 958.75964 216.21824 960.59175 216.51758 961.07617 C 216.81699 961.56056 217.32365 964.17491 217.64453 966.88672 C 217.96534 969.59849 218.63986 973.61642 219.14258 975.81641 C 219.64526 978.01643 220.8047 983.08378 221.7207 987.07617 C 225.30574 1002.4854 236.26883 1011.9586 252.86719 1017.2754 C 256.00231 1017.977 259.26479 1018.9093 260.11719 1019.3477 C 261.69238 1020.1576 274.42703 1024.2395 277.16602 1024.8125 C 286.61363 1026.7889 298.58556 1034.8537 302.03906 1041.5684 C 305.77996 1048.8418 304.29471 1050.4763 292.66602 1051.8945 C 291.56602 1052.0287 258.71602 1052.4026 219.66602 1052.7246 C 180.61601 1053.0465 137.76608 1053.575 124.44336 1053.9004 C 111.12056 1054.2257 96.812834 1054.1734 92.648438 1053.7832 C 86.054636 1053.1653 84.688846 1052.6869 82.076172 1050.0742 C 79.437646 1047.4357 79.248269 1046.8773 80.492188 1045.4453 C 81.270241 1044.5498 81.703393 1043.2574 81.455078 1042.5723 C 80.926473 1041.1134 85.799022 1036.7159 91.291016 1033.6973 C 93.41152 1032.5317 95.713122 1031.1243 96.40625 1030.5684 C 99.279938 1028.2633 115.49588 1020.3742 124.74219 1016.7832 C 147.80838 1007.8248 149.91302 1003.2452 145.87305 970.81641 C 143.80893 954.24779 139.66865 940.97933 134.85156 935.49414 C 127.22315 926.80758 126.95628 926.66124 116.44727 925.37695 C 98.45267 923.17787 83.227475 918.35552 78.789062 913.45117 C 77.356773 911.86846 77.258749 910.87121 78.146484 906.91016 C 79.919272 898.99953 79.009552 898.31641 66.681641 898.31641 C 51.17216 898.31641 46.005901 896.89306 34.970703 889.57227 C 31.370325 887.18376 24.242712 878.00397 23.820312 875.21094 C 23.704508 874.44456 23.278741 873.28563 22.873047 872.63672 C 21.854842 871.00778 20.20631 857.42118 20.056641 849.42578 C 19.851904 838.4822 23.376994 826.76609 28.458984 821.5 C 32.124484 817.70173 42.16814 811.31641 44.476562 811.31641 C 49.229054 811.31641 49.785216 806.4162 46.636719 792.31641 C 44.624045 783.30329 44.375132 759.92574 46.207031 752.06055 C 48.659945 741.5284 51.032427 734.57497 54.990234 726.32422 C 58.02803 719.99139 68.548841 710.67346 77.619141 706.2832 C 86.252337 702.10448 98.062712 699.00178 101.7832 699.93555 C 104.07749 700.5114 110.14448 695.57938 110.18945 693.10156 C 110.20223 692.39555 111.52399 689.56639 113.125 686.81641 C 114.72601 684.06638 117.15182 679.77037 118.51562 677.26953 C 121.19111 672.36336 129.48191 663.31295 135.23242 659.02148 C 140.90912 654.78509 151.47969 649.61859 158.3418 647.72656 C 163.01518 646.43805 169.23633 645.91964 182.16602 645.73633 C 184.36861 645.70512 186.36768 645.68679 188.20117 645.68945 z "
       transform="scale(0.26458333)"
       id="path4630"
       inkscape:export-filename="/home/danman/path4630.png"
       inkscape:export-xdpi="96"
       inkscape:export-ydpi="96" />
    <path
       style="fill:#ffffff;stroke:#000000;stroke-width:3.77952766;stroke-miterlimit:4;stroke-dasharray:none;stroke-opacity:1;fill-opacity:1"
       d="M 168.24023 1216.582 L 168.24023 1599.8262 L 565.87891 1599.8262 L 565.87891 1216.582 L 168.24023 1216.582 z M 390.05859 1233.959 C 399.64374 1234.1391 410.93516 1242.1476 423.48047 1257.6621 C 425.95901 1260.7273 437.76712 1278.9051 439.62695 1282.5195 C 440.51284 1284.2411 442.34419 1286.9642 443.69727 1288.5723 C 445.05034 1290.1803 447.22758 1293.496 448.53711 1295.9414 C 451.88634 1302.1957 458.53752 1312.176 460.24609 1313.5117 C 461.03605 1314.1293 464.63604 1314.9065 468.24609 1315.2402 C 479.21175 1316.2536 487.64581 1321.145 500.23633 1333.793 C 512.28592 1345.8975 530.75159 1367.3928 536.2793 1375.748 C 540.98987 1382.8681 542.53117 1387.5779 542.44727 1394.5977 C 542.35368 1402.4319 539.8595 1409.0547 534.9082 1414.6094 C 532.5649 1417.2383 529.79602 1420.4012 528.75586 1421.6387 C 527.71573 1422.8762 526.06565 1423.8887 525.08789 1423.8887 C 524.11013 1423.8887 523.30859 1424.2432 523.30859 1424.6758 C 523.30859 1425.4699 513.82922 1432.8887 512.81445 1432.8887 C 512.51338 1432.8887 510.54129 1434.029 508.43359 1435.4238 C 506.3259 1436.8186 501.50678 1439.0833 497.72461 1440.4551 C 493.94244 1441.8269 490.44366 1443.3532 489.94922 1443.8477 C 489.45478 1444.3421 488.94768 1447.817 488.82031 1451.5684 C 488.69317 1455.3198 487.82813 1461.3137 486.89844 1464.8887 C 485.11261 1471.756 474.78115 1493.8887 473.36133 1493.8887 C 472.90219 1493.8887 472.25895 1494.9558 471.93164 1496.2598 C 471.60437 1497.5637 466.40786 1503.7216 460.38477 1509.9453 C 450.26463 1520.4023 449.47832 1521.4932 450.0293 1524.3242 C 450.35721 1526.0091 451.00595 1527.5393 451.46875 1527.7227 C 451.93159 1527.906 452.30859 1528.6053 452.30859 1529.2773 C 452.30859 1531.0379 461.03441 1539.0356 466.30859 1542.1094 C 496.75549 1560.3864 474.6753 1579.0809 446.01367 1564.6504 C 440.60222 1561.7661 438.38841 1559.7085 434.11523 1553.5879 C 432.35295 1551.0637 429.10334 1550.1741 418.30859 1549.2637 C 415.28361 1549.0086 410.78358 1548.6158 408.30859 1548.3887 C 405.83361 1548.1617 391.99612 1547.687 377.55859 1547.334 C 369.35452 1547.1356 347.24595 1548.6289 353.75781 1553.623 C 359.35514 1555.2537 366.15062 1559.5992 369.23438 1563.5195 C 371.4979 1566.3972 372.11764 1574.5095 370.33008 1577.8496 C 367.92815 1582.3376 357.93115 1582.8276 318.12891 1580.4121 C 290.30108 1578.7233 286.0394 1578.3006 283.58203 1576.9824 C 282.60748 1576.4597 279.65348 1575.0504 277.01953 1573.8516 C 274.38558 1572.6527 269.09648 1568.7968 265.26562 1565.2812 C 261.43481 1561.7657 257.93816 1558.8887 257.49414 1558.8887 C 257.05012 1558.8887 255.81425 1558.0831 254.74805 1557.0977 C 252.89067 1555.381 243.74011 1548.95 238.90625 1545.9648 C 236.83465 1544.6855 236.28896 1544.7661 233.48633 1546.7617 C 230.708 1548.7401 229.92182 1548.8607 226.25391 1547.873 C 220.05061 1546.2026 213.53918 1541.7351 206.21094 1534.1211 C 198.03744 1525.6289 193.26692 1518.2777 190.46289 1509.8516 C 187.44354 1500.7784 187.80999 1495.2314 191.66016 1491.7148 C 193.31378 1490.2045 195.85999 1488.7072 197.31836 1488.3867 C 201.4772 1487.4733 209.50936 1489.7158 212.57422 1492.6465 C 215.19831 1495.1557 215.42593 1495.2015 217.07422 1493.5527 C 218.44475 1492.1819 218.5368 1491.6475 217.51172 1491.0137 C 216.46298 1490.3651 216.42837 1488.0162 217.33398 1478.7988 C 217.95061 1472.5228 218.72593 1466.7137 219.05664 1465.8887 C 219.38735 1465.0637 219.78122 1462.5887 219.93164 1460.3887 C 222.66477 1430.3213 234.77104 1396.5049 259.59766 1376.0781 C 273.88317 1365.1292 289.02546 1358.7297 308.72852 1355.3125 C 327.39813 1352.0745 366.87282 1355.6826 391.30273 1362.8613 C 397.7754 1364.7633 400.99212 1364.1699 405.30078 1360.2773 C 408.88423 1357.0397 409.24492 1356.2901 408.78711 1353.0273 C 408.50625 1351.0259 408.14419 1347.8137 407.98242 1345.8887 C 407.65946 1342.0479 402.73679 1328.2756 400.83398 1325.8887 C 400.17627 1325.0637 398.72804 1322.4899 397.61523 1320.1699 C 395.56095 1315.887 391.6331 1310.2296 385.30859 1302.4395 C 383.3836 1300.0684 380.45858 1296.4278 378.80859 1294.3496 C 377.15861 1292.2714 373.49122 1287.8852 370.6582 1284.6016 C 362.7365 1275.4198 359.84842 1268.9014 359.87109 1260.2441 C 359.89249 1251.5686 361.00197 1249.8887 366.70898 1249.8887 C 370.95407 1249.8887 373.23232 1251.0308 379.18945 1256.1504 C 382.18537 1258.7251 382.73892 1258.8861 384.06055 1257.5645 C 385.38217 1256.2428 385.25511 1255.6829 382.93164 1252.6367 C 381.48979 1250.7464 380.30859 1248.4252 380.30859 1247.4785 C 380.30859 1246.5318 379.84973 1244.8969 379.28711 1243.8457 C 378.43936 1242.2617 378.95307 1241.2461 382.28711 1237.9121 C 385.60493 1234.5943 386.96584 1233.9008 390.05859 1233.959 z "
       transform="scale(0.26458333)"
       id="path4628"
       inkscape:export-filename="/home/danman/path4628.png"
       inkscape:export-xdpi="96"
       inkscape:export-ydpi="96" />
    <path
       style="fill:#ffffff;fill-opacity:1;stroke:#000000;stroke-width:1;stroke-miterlimit:4;stroke-dasharray:none;stroke-opacity:1"
       d="M 142.49725,7.6594055 V 98.75153 h 54.61733 V 7.6594055 Z m 26.21493,3.8214725 c 2.87639,-0.03727 5.8397,0.331443 7.92768,1.088821 0.65193,0.236471 1.30452,0.460227 1.45004,0.497128 1.32942,0.337479 5.15938,3.713591 5.15938,4.548042 0,0.174699 0.23847,0.857203 0.5302,1.516703 0.72938,1.648891 0.93471,4.645919 0.53227,7.776271 -0.34033,2.64736 -1.51577,6.834036 -2.41691,8.610327 -0.6209,1.223918 -0.418,2.103231 -0.10077,2.49442 0.39987,0.534059 0.49422,0.628359 0.8599,1.03818 1.3444,1.489271 2.45802,3.225774 2.71198,3.525883 0.10445,0.123438 0.15429,0.19372 0.24081,0.294039 0.48896,0.56696 5.62493,6.498725 6.52208,8.233606 1.24502,2.407618 -0.12028,6.984524 -3.93671,13.197644 -1.1571,1.88377 -1.20671,2.04475 -0.9865,3.175 0.21723,1.114801 0.75942,4.499356 1.3565,8.466666 0.7724,5.13207 1.09604,7.427373 1.61748,11.464933 0.54846,4.246864 0.55421,4.492451 0.11937,5.299932 -0.75586,1.403536 -2.16639,1.865816 -5.72678,1.877933 -3.76857,0.01278 -5.54934,-0.467492 -6.95979,-1.877933 -0.53779,-0.537792 -0.97771,-1.089977 -0.97771,-1.226793 0,-0.136816 -0.44648,-0.820767 -0.99219,-1.519806 -0.5457,-0.699051 -2.02583,-2.743925 -3.28921,-4.544426 -3.27234,-4.663511 -3.77678,-5.000767 -4.39456,-2.938838 -0.17031,0.56845 -1.08584,2.313379 -2.0345,3.8778 -0.94866,1.56441 -1.72496,2.89751 -1.72496,2.962608 0,0.06509 -0.185,0.3267 -0.41083,0.581361 -0.22582,0.254659 -0.79136,1.058325 -1.25677,1.78593 -1.31045,2.048721 -2.19587,2.368629 -6.53448,2.361618 -4.67355,-0.008 -5.36125,-0.156951 -6.27869,-1.359086 -0.62899,-0.82415 -0.73277,-1.2065 -0.73277,-2.701128 0,-1.914012 0.36719,-6.902601 0.5271,-7.161321 0.0554,-0.08964 0.2366,-1.228405 0.40307,-2.530594 0.16648,-1.3022 0.53754,-3.677502 0.82424,-5.278231 0.28668,-1.600732 0.69785,-4.041508 0.91364,-5.423958 0.79222,-5.075481 0.80828,-4.612916 -0.20619,-5.798095 -1.03002,-1.203362 -2.85224,-4.592413 -3.68401,-6.851264 -0.34854,-0.946528 -0.59095,-2.344293 -0.65216,-3.763595 -0.0878,-2.037498 -0.0262,-2.399416 0.62787,-3.715017 1.29571,-2.606111 3.21395,-4.828077 8.4646,-9.805085 1.63259,-1.547482 2.9683,-2.953589 2.9683,-3.124359 0,-0.17078 -0.27076,-0.809461 -0.60152,-1.41955 -1.86145,-3.433562 -2.82798,-7.136776 -3.021,-11.573455 -0.14126,-3.246688 -0.0985,-3.779342 0.4563,-5.648234 0.33692,-1.13497 0.77042,-2.124314 0.96325,-2.198315 0.19283,-0.07399 0.35295,-0.270843 0.35295,-0.437182 0.004,-0.553989 3.01157,-2.22918 5.2896,-2.94659 1.67865,-0.528645 3.86321,-0.803002 6.1004,-0.83199 z"
       id="path4626"
       inkscape:export-filename="/home/danman/path4626.png"
       inkscape:export-xdpi="96"
       inkscape:export-ydpi="96"
       inkscape:connector-curvature="0" />
    <path
       style="fill:#ffffff;fill-opacity:1;stroke:#000000;stroke-width:1;stroke-miterlimit:4;stroke-dasharray:none;stroke-opacity:1"
       d="M 6.4254482,6.1475738 V 73.427193 H 102.62061 V 6.1475738 Z M 80.050927,9.1386063 c 1.01727,0.031618 2.12349,0.5061453 2.16059,0.9270737 0.05313,0.602109 0.09552,0.753472 0.304893,1.082622 0.110458,0.17368 -0.228484,1.128429 -0.767914,2.161109 -0.96847,1.897409 -1.439989,4.012901 -0.108519,6.391341 0.16953,0.224419 0.269809,0.416015 0.576707,0.727604 0.545532,0.758888 1.52976,1.702816 1.12603,1.297593 1.57263,1.568352 4.921147,6.07821 4.921147,6.628022 0,0.09278 0.16324,0.356785 0.36277,0.586525 0.46863,0.539562 1.489313,3.535757 1.489313,4.371827 0,0.354629 0.119065,0.71832 0.264583,0.80822 0.145521,0.08994 0.264584,0.45071 0.264584,0.8015 0,1.01542 1.438846,3.422557 1.882055,3.148647 0.129032,-0.07975 0.234611,-0.02348 0.234611,0.12454 0,0.148018 1.114997,0.994981 2.477887,1.882571 1.47185,0.95853 2.613692,1.903354 2.81223,2.326473 0.425219,0.906341 0.374655,8.518409 -0.06305,9.479008 -0.316119,0.693861 -2.408833,1.822182 -2.861324,1.542542 -0.41203,-0.254649 -5.258546,0.905311 -6.757728,1.617471 -0.742098,0.352531 -1.435727,0.64079 -1.541507,0.64079 -0.105749,0 -1.585651,1.406244 -3.28817,3.124874 -1.702541,1.71862 -3.588467,3.401947 -4.191476,3.740857 -1.436259,0.807227 -1.46898,0.953891 -1.004589,4.527372 0.17376,1.336945 0.130003,1.54205 -0.478007,2.248964 -0.661172,0.768826 -0.701437,0.777716 -3.440618,0.777716 -3.277711,0 -3.64164,-0.205687 -4.286559,-2.424139 -0.646271,-2.223066 -1.106146,-2.543164 -3.393075,-2.360575 -4.9858,0.39806 -22.522055,0.594884 -26.165844,0.293523 -1.355651,-0.11212 -5.114777,-0.646874 -7.617108,-1.083654 -1.30492,-0.227772 -1.854158,0.4474 -2.041218,2.510441 -0.08003,0.882756 -0.308293,1.740535 -0.507463,1.90582 -0.23286,0.193331 -1.110999,0.256911 -2.459797,0.178806 -1.777942,-0.102923 -2.2435,-0.23294 -3.058729,-0.854737 -1.109879,-0.846534 -1.281572,-1.212987 -1.725993,-3.683487 -0.457309,-2.54204 -0.778563,-3.058625 -3.603913,-5.791895 -2.669749,-2.582739 -5.164297,-6.246935 -5.999118,-8.813414 -1.09071,-3.353242 -1.308769,-5.110575 -1.145148,-9.228894 0.256669,-6.461231 1.243417,-10.652554 3.259748,-13.846183 0.48414,-0.76681 0.880565,-1.465143 0.880565,-1.551845 0,-0.08669 -0.402029,-0.530828 -0.892968,-0.98702 -1.35998,-1.263708 -0.998482,-2.633586 0.782899,-2.967775 0.65977,-0.123773 1.14585,-0.01994 1.847948,0.39429 l 0.952397,0.562239 1.600419,-1.337387 c 0.880269,-0.735517 2.324693,-1.696735 3.209624,-2.135785 0.884899,-0.43905 1.732378,-0.896633 1.88309,-1.016992 0.347688,-0.277641 4.199874,-1.880484 6.623883,-2.755905 3.886509,-1.403589 7.690884,-2.370617 12.170833,-3.093869 3.248321,-0.524409 10.916838,-0.106021 14.382067,0.78445 0.529932,0.136179 1.499542,0.317593 2.154391,0.403593 0.654841,0.08597 2.321727,0.460955 3.704167,0.833022 1.38245,0.372071 2.760543,0.737222 3.062864,0.811321 0.388218,0.09522 1.165381,-0.328779 2.645833,-1.443839 2.704809,-2.03726 5.136883,-3.363127 7.112744,-3.8767649 0.86733,-0.22547 1.879356,-0.4001082 2.248958,-0.3886068 z"
       id="path4624"
       inkscape:export-filename="/home/danman/path4624.png"
       inkscape:export-xdpi="96"
       inkscape:export-ydpi="96"
       inkscape:connector-curvature="0" />
    <path
       style="fill:#ffffff;fill-opacity:1;stroke:#000000;stroke-width:1;stroke-miterlimit:4;stroke-dasharray:none;stroke-opacity:1"
       d="M 2.0787978,94.215953 V 147.13262 H 111.69174 V 94.215953 Z m 54.2571512,3.229776 c 0.865851,0.0052 1.402707,0.02806 1.45211,0.07338 0.05799,0.0532 0.938853,0.162578 1.957501,0.242879 2.14145,0.168691 4.790972,0.626528 5.55625,0.960149 2.58445,1.126699 3.290448,1.538053 4.061769,2.367293 0.820468,0.8821 1.901876,2.5409 3.002918,4.60644 1.118987,1.52033 6.620544,3.25302 8.678021,3.21273 2.89709,0.24017 5.960396,0.83968 7.540625,1.47536 0.291042,0.11708 1.005411,0.3311 1.5875,0.47594 2.029351,0.50495 7.096022,2.71632 7.418152,3.23753 0.09186,0.14866 0.611359,0.55083 1.15497,0.894 0.543618,0.34317 1.456345,1.13046 2.028295,1.74924 0.57195,0.6188 1.2486,1.34531 1.50327,1.61438 0.25466,0.26906 0.46302,0.56892 0.46302,0.66662 0,0.0977 0.16897,0.36557 0.37569,0.59531 0.646,0.71796 2.20317,3.78585 2.76366,5.44463 0.29501,0.87312 0.71929,2.93598 0.94257,4.58422 0.35076,2.58884 0.35576,3.11772 0.0351,3.88503 -0.48626,1.16379 -1.74948,1.82505 -3.07991,1.61231 -1.15594,-0.18485 -1.36281,-0.029 -2.76572,2.08463 -2.673095,4.02718 -7.305431,5.89511 -12.165671,4.90512 -2.82739,-0.57592 -5.817764,-2.78469 -6.714836,-4.9599 -0.273479,-0.66312 -0.559321,-0.89224 -1.282091,-1.02785 -0.511591,-0.096 -10.823419,-0.11452 -22.91488,-0.0408 l -21.984187,0.13384 -0.635621,1.0263 c -0.887331,1.43303 -2.039319,2.62648 -3.809069,3.94652 -1.874491,1.39819 -4.075636,1.86097 -7.574214,1.59215 -3.674332,-0.28228 -6.908771,-2.19032 -8.32249,-4.90926 l -0.619085,-1.19062 -4.301545,-0.13229 -4.3010299,-0.13229 -0.8056351,-0.90279 c -0.7975891,-0.89356 -0.8043201,-0.92421 -0.6278695,-3.04271 0.3457311,-4.15059 2.1558197,-9.67875 5.2048515,-15.89825 1.661369,-3.38896 2.979931,-5.88883 3.48144,-6.60012 0.98986,-1.40386 4.18577,-4.79756 5.252911,-5.57795 5.149508,-3.76572 10.767695,-5.517977 20.479885,-6.387207 3.275928,-0.29319 13.211283,-0.60632 16.963305,-0.583944 z"
       id="path4587"
       inkscape:export-filename="/home/danman/path4587.png"
       inkscape:export-xdpi="96"
       inkscape:export-ydpi="96"
       inkscape:connector-curvature="0" />
  </g>
</svg>
