<?xml version="1.0" encoding="UTF-8" standalone="no"?>
<!-- Created with Inkscape (http://www.inkscape.org/) -->

<svg
   xmlns:dc="http://purl.org/dc/elements/1.1/"
   xmlns:cc="http://creativecommons.org/ns#"
   xmlns:rdf="http://www.w3.org/1999/02/22-rdf-syntax-ns#"
   xmlns:svg="http://www.w3.org/2000/svg"
   xmlns="http://www.w3.org/2000/svg"
   xmlns:sodipodi="http://sodipodi.sourceforge.net/DTD/sodipodi-0.dtd"
   xmlns:inkscape="http://www.inkscape.org/namespaces/inkscape"
   width="210mm"
   height="297mm"
   viewBox="0 0 210 297"
   version="1.1"
   id="svg8"
   inkscape:version="0.92.5 (2060ec1f9f, 2020-04-08)"
   sodipodi:docname="grabolo-shapes.svg">
  <defs
     id="defs2" />
  <sodipodi:namedview
     id="base"
     pagecolor="#ffffff"
     bordercolor="#666666"
     borderopacity="1.0"
     inkscape:pageopacity="0"
     inkscape:pageshadow="2"
     inkscape:zoom="0.35"
     inkscape:cx="127.17661"
     inkscape:cy="329.67783"
     inkscape:document-units="mm"
     inkscape:current-layer="layer1"
     showgrid="false"
     inkscape:window-width="1848"
     inkscape:window-height="1016"
     inkscape:window-x="72"
     inkscape:window-y="27"
     inkscape:window-maximized="1"
     inkscape:pagecheckerboard="true" />
  <metadata
     id="metadata5">
    <rdf:RDF>
      <cc:Work
         rdf:about="">
        <dc:format>image/svg+xml</dc:format>
        <dc:type
           rdf:resource="http://purl.org/dc/dcmitype/StillImage" />
        <dc:title />
      </cc:Work>
    </rdf:RDF>
  </metadata>
  <g
     inkscape:label="Layer 1"
     inkscape:groupmode="layer"
     id="layer1">
    <path
       style="fill:#ffffff;fill-opacity:1;stroke:#000000;stroke-width:1.36554492;stroke-miterlimit:4;stroke-dasharray:none;stroke-opacity:1"
       d="M 219.69466,85.801627 V 284.43653 h 198.6344 V 85.801627 Z m 151.51531,41.138063 c 2.14022,0.0665 4.46741,1.0647 4.54547,1.95026 0.1117,1.26677 0.20126,1.5854 0.6418,2.2779 0.23241,0.3654 -0.48102,2.37385 -1.61592,4.54649 -2.03756,3.99191 -3.02966,8.44277 -0.22842,13.44673 0.35669,0.47215 0.56769,0.8751 1.21338,1.53065 1.14771,1.59662 3.21877,3.58262 2.36935,2.73007 3.30864,3.29964 10.35338,12.78812 10.35338,13.94488 0,0.19525 0.34348,0.75069 0.76327,1.23404 0.98594,1.13517 3.13314,7.43888 3.13314,9.19788 0,0.7461 0.25094,1.51101 0.55706,1.70016 0.30617,0.18913 0.55658,0.94818 0.55658,1.6862 0,2.13633 3.02696,7.20067 3.95943,6.6244 0.27149,-0.16789 0.4935,-0.0494 0.4935,0.262 0,0.31142 2.34577,2.09361 5.21314,3.961 3.09658,2.01664 5.49923,4.00409 5.91693,4.89428 0.89461,1.90684 0.78798,17.92197 -0.13279,19.94296 -0.66509,1.45982 -5.06781,3.8336 -6.0198,3.24528 -0.86683,-0.53576 -11.06363,1.9046 -14.21773,3.40291 -1.56131,0.74165 -3.02014,1.34824 -3.24271,1.34824 -0.22246,0 -3.336,2.95846 -6.9179,6.57426 -3.58196,3.61579 -7.54994,7.15732 -8.81859,7.87032 -3.02175,1.69833 -3.0906,2.00681 -2.11357,9.525 0.36557,2.81278 0.27355,3.24421 -1.00563,4.73149 -1.39102,1.61753 -1.4759,1.63661 -7.23884,1.63661 -6.89591,0 -7.66122,-0.43307 -9.01803,-5.10048 -1.3597,-4.67704 -2.32767,-5.35025 -7.13912,-4.9661 -10.48954,0.83746 -47.38375,1.25156 -55.04987,0.61754 -2.85213,-0.2359 -10.76076,-1.36104 -16.02536,-2.27997 -2.7454,-0.47919 -3.90078,0.94147 -4.29432,5.28185 -0.16833,1.85719 -0.6486,3.66184 -1.06762,4.00958 -0.48993,0.40674 -2.33768,0.54054 -5.17541,0.37621 -3.7406,-0.21654 -4.72012,-0.4902 -6.43528,-1.79835 -2.33505,-1.78104 -2.69629,-2.55228 -3.6313,-7.74991 -0.96213,-5.34815 -1.63774,-6.43482 -7.58195,-12.1853 -5.61687,-5.43381 -10.86509,-13.14297 -12.62145,-18.54256 -2.29473,-7.05482 -2.75341,-10.7519 -2.40916,-19.41637 0.54002,-13.59369 2.61583,-22.41149 6.85797,-29.13053 1.0186,-1.61327 1.85262,-3.0825 1.85262,-3.26491 0,-0.18241 -0.84609,-1.11709 -1.87897,-2.07688 -2.86123,-2.65869 -2.10039,-5.54044 1.64746,-6.24354 1.38805,-0.26039 2.41046,-0.0421 3.8876,0.8294 l 2.00401,1.18288 3.36724,-2.81378 c 1.85195,-1.54745 4.89077,-3.56956 6.75257,-4.49327 1.86171,-0.9237 3.64442,-1.88669 3.9615,-2.13992 0.73152,-0.58412 8.83626,-3.9563 13.9361,-5.7981 8.17677,-2.95298 16.18089,-4.98753 25.60619,-6.50916 6.83411,-1.1033 22.96766,-0.22293 30.2581,1.65054 1.1149,0.28648 3.15481,0.66813 4.53255,0.84905 1.37771,0.18094 4.88481,0.96955 7.79333,1.75235 2.90851,0.78279 5.80749,1.55149 6.44353,1.70739 0.81676,0.20028 2.45186,-0.69211 5.56659,-3.03806 5.69058,-4.28617 10.80746,-7.07545 14.96446,-8.15609 1.82475,-0.47437 3.95388,-0.84172 4.73149,-0.81752 z"
       id="path828-3-7"
       inkscape:connector-curvature="0"
       inkscape:export-filename="/home/danman/path828-3-7.png"
       inkscape:export-xdpi="96"
       inkscape:export-ydpi="96" />
    <path
       style="fill:#ffffff;fill-opacity:1;stroke:#000000;stroke-width:1.36554492;stroke-miterlimit:4;stroke-dasharray:none;stroke-opacity:1"
       d="M -239.5466,-134.18029 V 64.454093 H -40.911712 V -134.18029 Z m 140.237418,7.20421 h 5.19e-4 c 0.105029,0.0147 1.331907,0.0187 2.726447,0.0103 3.825761,-0.025 5.921938,0.24548 8.298719,1.07073 3.71565,1.29009 4.298604,1.60512 6.895703,3.7269 2.734189,2.23379 5.550342,6.32489 6.750492,9.80612 1.302351,3.77764 1.824501,4.88535 2.82825,5.99964 2.67498,2.96962 4.813499,3.94281 12.6907,5.77897 2.726748,0.635644 5.653445,1.320582 6.503995,1.522393 3.208229,0.76109 5.002996,3.992126 3.579628,6.443017 l -0.623737,1.072803 -12.307774,1.610754 c -6.76938,0.885849 -13.462174,1.860346 -14.872996,2.166276 -5.102069,1.10635 -8.986488,3.268774 -11.412738,6.352582 -2.1429,2.723711 -2.814011,4.875779 -2.826703,9.056296 -0.0113,3.8691 1.246952,10.010905 2.433961,11.879379 0.372131,0.5857 0.712694,1.363596 0.754993,1.729092 0.0815,0.692078 2.413738,4.839941 4.823479,8.577254 1.686808,2.616113 4.974177,8.801717 5.705078,10.734747 0.290039,0.767124 1.267648,3.326667 2.172478,5.688541 1.43605,3.7486 1.722437,4.947226 2.252056,9.433532 1.378572,11.676718 -0.295674,22.7888275 -4.945433,32.8259028 -2.09864,4.5302302 -8.697764,12.7273442 -12.309842,15.2905402 -0.476851,0.338426 -0.935556,0.750533 -1.019577,0.915705 -0.226769,0.446407 -6.7789,4.739761 -9.419576,6.172234 -5.72942,3.108058 -8.31471,4.290317 -12.63024,5.777426 -4.39843,1.554408 6.53775,4.362082 11.78274,7.763867 22.708922,13.580327 -4.366,11.904633 -18.59576,11.22722 -3.93128,-0.03424 -8.50074,-0.06319 -10.15441,-0.06408 -1.65365,-8.97e-4 -4.61457,-0.01017 -6.57945,-0.02119 -3.91951,-0.02131 -3.79524,-0.02258 -9.27386,0.11834 -2.1051,0.05408 -3.97936,0.0255 -4.16512,-0.06356 -0.18582,-0.0892 -2.84205,-0.115927 -5.90248,-0.05994 -3.06047,0.05584 -6.18371,0.01308 -6.94013,-0.09508 -0.75642,-0.10801 -3.39572,-0.12189 -5.86528,-0.03049 -4.30179,0.159811 -6.69891,-0.0044 -7.58661,-0.519348 -4.19376,-2.677978 0.60875,-6.518325 3.67728,-8.74055 2.56524,-1.793796 17.39908,-6.876878 13.01782,-8.944673 -0.40608,-0.03556 -1.79724,-0.442696 -3.09182,-0.904338 -1.29455,-0.461704 -3.67286,-1.269302 -5.28494,-1.794725 -1.61214,-0.525391 -3.00186,-1.080838 -3.0887,-1.234548 -0.087,-0.153636 -0.35292,-0.254841 -0.59065,-0.224277 -0.44723,0.05716 -4.36764,-1.905415 -10.18493,-5.098396 -5.35707,-2.940431 -15.94257,-11.636639 -23.58355,-19.3750446 -1.73982,-1.7620368 -3.19492,-3.347821 -6.27198,-6.8331746 -0.93993,-1.06466899 -1.89994,-2.12401911 -2.1332,-2.35437805 -0.23326,-0.23034519 -0.43817,-0.51080535 -0.44804,-0.62425125 -0.0127,-0.1132981 -0.67625,-0.9016474 -1.47328,-1.7513144 -0.79703,-0.849726 -3.06856,-3.776796 -5.04828,-6.5055461 -7.11935,-9.812844 -12.41152,-18.530855 -12.69637,-20.912935 -0.26686,-1.963918 -0.99981,-4.048422 -0.0858,-6.288504 0.65156,-0.785275 3.26337,-1.566711 3.90313,-1.167889 0.94324,0.588039 10.32082,3.111352 12.79147,3.441652 12.32654,1.647959 25.98267,-0.366289 42.68007,-6.294707 12.43587,-4.415417 13.5274,-4.733388 21.07935,-6.136061 10.07901,-1.872072 17.69351,-2.070552 28.46906,-0.743106 1.99253,0.245436 4.19008,0.604989 4.88393,0.798918 1.09656,0.306509 1.3322,0.258778 1.79731,-0.361736 0.4704,-0.627417 0.44655,-1.002173 -0.19172,-3.096451 -0.39946,-1.310592 -1.78939,-4.802581 -3.08922,-7.76025 -2.26153,-5.145892 -4.05239,-9.52641 -4.71702,-11.539863 -0.1706,-0.516794 -0.48808,-1.269325 -0.70641,-1.672251 -0.21839,-0.402966 -0.90398,-2.607082 -1.52239,-4.89789 -0.61844,-2.290818 -1.38697,-5.089223 -1.70844,-6.218743 -1.59438,-5.602279 -1.68653,-15.355167 -0.19584,-20.732061 1.14842,-4.17616 2.19749,-8.9227 8.19692,-14.31334 4.41808,-4.07849 10.34033,-6.85426 18.63142,-8.73177 2.21458,-0.50144 4.112139,-0.89939 4.217308,-0.8847 z"
       id="path828"
       inkscape:connector-curvature="0"
       inkscape:export-filename="/home/danman/Projects/grabolo-toss/img/goose.png"
       inkscape:export-xdpi="96"
       inkscape:export-ydpi="96" />
    <path
       style="fill:#ffffff;fill-opacity:1;stroke:#000000;stroke-width:1.36554492;stroke-miterlimit:4;stroke-dasharray:none;stroke-opacity:1"
       d="M 219.69453,-136.44815 V 62.186236 H 418.3289 V -136.44815 Z m 101.99738,7.9313 c 6.00763,0.0279 12.0674,0.8467 16.4176,2.42466 1.44881,0.52552 2.89915,1.02282 3.22255,1.10484 2.95442,0.74997 11.46596,8.25295 11.46596,10.10739 0,0.38825 0.5299,1.9047 1.17824,3.37034 1.62092,3.66441 2.07722,10.32491 1.18287,17.281634 -0.75634,5.883346 -3.36862,15.187734 -5.37125,19.135264 -1.37988,2.71997 -0.92877,4.673976 -0.22376,5.543333 0.88866,1.186863 1.09831,1.396588 1.91098,2.307352 2.98773,3.309676 5.46264,7.168753 6.02702,7.835696 0.23212,0.274323 0.34258,0.430763 0.53486,0.653709 1.08664,1.25998 12.50095,14.442083 14.49472,18.297591 2.76685,5.350558 -0.26739,15.522292 -8.74882,29.329991 -2.57148,4.1863878 -2.68203,4.5440934 -2.19263,7.0559001 0.48276,2.4774734 1.68788,9.9991732 3.0148,18.8159059 1.71653,11.40523 2.4358,16.506209 3.59463,25.479064 1.21888,9.437999 1.23145,9.983589 0.26508,11.778093 -1.67978,3.119141 -4.81444,4.14646 -12.72685,4.17339 -8.37507,0.0284 -12.33226,-1.038903 -15.46678,-4.17339 -1.19515,-1.195162 -2.17299,-2.422395 -2.17299,-2.726449 0,-0.304051 -0.9923,-1.824064 -2.20501,-3.377573 -1.21275,-1.55353 -4.502,-6.097788 -7.30965,-10.099124 -7.27228,-10.363932 -8.3934,-11.113703 -9.76632,-6.531383 -0.37849,1.26329 -2.41293,5.141394 -4.52118,8.618077 -2.10825,3.47666 -3.83386,6.439427 -3.83386,6.584096 0,0.144653 -0.41074,0.725963 -0.9126,1.29191 -0.50187,0.565938 -1.75882,2.351759 -2.79313,3.96875 -2.91227,4.552963 -4.88021,5.26384 -14.52211,5.248259 -10.38624,-0.01778 -11.91429,-0.348414 -13.95314,-3.01997 -1.39785,-1.831547 -1.62833,-2.681671 -1.62833,-6.003253 0,-4.253595 0.81563,-15.339825 1.17097,-15.914791 0.12314,-0.19921 0.52612,-2.730033 0.89609,-5.623945 0.36997,-2.893939 1.19428,-8.172663 1.83139,-11.730033 0.63709,-3.55738 1.55133,-8.9817638 2.03089,-12.05404503 1.76062,-11.27947197 1.79612,-10.25112367 -0.45836,-12.88500197 -2.28907,-2.674286 -6.33863,-10.205996 -8.18711,-15.225943 -0.77457,-2.103512 -1.3135,-5.209654 -1.44952,-8.363831 -0.19513,-4.528026 -0.0584,-5.332624 1.39528,-8.256344 2.87951,-5.791679 7.14248,-10.72977 18.81124,-21.790401 3.62818,-3.439038 6.59651,-6.563735 6.59651,-6.943246 0,-0.379529 -0.60129,-1.799016 -1.33636,-3.154844 -4.13678,-7.630562 -6.28483,-15.86004 -6.7138,-25.719878 -0.31393,-7.21526 -0.21907,-8.39938 1.01388,-12.55272 0.74875,-2.52229 1.71241,-4.72102 2.14096,-4.88549 0.42852,-0.16442 0.78393,-0.60186 0.78393,-0.97152 0.009,-1.23116 6.6928,-4.95358 11.75536,-6.54792 3.73055,-1.17483 8.58549,-1.78457 13.55731,-1.84898 0.39952,-0.005 0.79994,-0.007 1.20044,-0.005 z"
       id="path828-3"
       inkscape:connector-curvature="0"
       inkscape:export-filename="/home/danman/Projects/grabolo-toss/img/figure.png"
       inkscape:export-xdpi="96"
       inkscape:export-ydpi="96" />
    <path
       style="fill:#ffffff;fill-opacity:1;stroke:#000000;stroke-width:1.36554492;stroke-miterlimit:4;stroke-dasharray:none;stroke-opacity:1"
       d="M -239.16826,82.777965 V 281.41286 H -40.533884 V 82.777965 Z m 99.55464,62.463365 c 1.55202,0.009 2.51439,0.0501 2.60294,0.13126 0.10396,0.0954 1.68291,0.29171 3.50883,0.43564 3.83852,0.30237 8.58734,1.12282 9.95907,1.72082 4.63259,2.01959 5.89815,2.75674 7.2807,4.24315 1.47069,1.58114 3.40903,4.55495 5.38263,8.25738 2.00573,2.72517 11.867123,5.83052 15.555113,5.7583 5.192979,0.4305 10.683956,1.50535 13.516488,2.6448 0.52171,0.20987 1.802431,0.59356 2.845821,0.85318 3.63756,0.90511 12.719452,4.86901 13.296863,5.80327 0.164729,0.26647 1.095727,0.98735 2.070158,1.60248 0.97441,0.61512 2.610226,2.02606 3.635436,3.13521 1.025199,1.10918 2.238436,2.41158 2.694926,2.89388 0.45647,0.48228 0.829924,1.01963 0.829924,1.19476 0,0.17512 0.302813,0.65531 0.673344,1.06712 1.157949,1.28693 3.949033,6.78628 4.953701,9.75961 0.528801,1.56504 1.2896,5.26264 1.689819,8.21707 0.62874,4.64044 0.637747,5.58852 0.06305,6.96391 -0.871619,2.08608 -3.136349,3.27108 -5.521108,2.88975 -2.071999,-0.33134 -2.44263,-0.0519 -4.95732,3.73672 -4.791451,7.21863 -13.095068,10.56677 -21.806937,8.79224 -5.068052,-1.03235 -10.427949,-4.99139 -12.035959,-8.89042 -0.490181,-1.18863 -1.002509,-1.59919 -2.298049,-1.84227 -0.917022,-0.17208 -19.40082,-0.20545 -41.07451,-0.0734 l -39.40638,0.23978 -1.13895,1.83967 c -1.59051,2.56868 -3.65575,4.70786 -6.82799,7.07401 -3.35997,2.50621 -7.30531,3.33594 -13.57644,2.85408 -6.58616,-0.50596 -12.38387,-3.92633 -14.91794,-8.79999 l -1.1095,-2.13371 -7.71065,-0.2372 -7.70958,-0.23719 -1.44386,-1.61851 c -1.42965,-1.60169 -1.44179,-1.65656 -1.12551,-5.45393 0.61973,-7.43983 3.86434,-17.34865 9.32968,-28.49697 2.97797,-6.07464 5.34149,-10.55583 6.24044,-11.8308 1.77429,-2.51639 7.5026,-8.59951 9.41543,-9.99835 9.23039,-6.74997 19.30101,-9.89084 36.70991,-11.44892 5.87203,-0.52554 23.681,-1.08656 30.40642,-1.04645 z"
       id="path892"
       inkscape:connector-curvature="0"
       inkscape:export-filename="/home/danman/path892.png"
       inkscape:export-xdpi="96"
       inkscape:export-ydpi="96" />
    <path
       style="fill:#ffffff;fill-opacity:1;stroke:#000000;stroke-width:1.36554492;stroke-miterlimit:4;stroke-dasharray:none;stroke-opacity:1"
       d="M -3.3113488,82.777892 V 281.41279 H 195.32304 V 82.777892 Z M 99.528366,88.569785 v 5.19e-4 c 5.820084,0.008 7.994334,0.458713 12.907744,2.267045 8.55292,3.147838 15.51883,10.103461 17.92913,17.904331 0.70172,2.271 0.89039,4.20165 0.89039,9.10487 v 6.22184 c 0.14088,-0.84943 2.5466,0.0433 3.17397,0.94723 1.62117,0.001 4.37624,0.36209 6.1221,0.80151 2.93608,0.73898 3.41478,1.04078 6.36654,4.02507 3.47488,3.51315 5.42229,6.93746 5.86734,10.31565 0.30993,2.35233 -0.44095,5.9868 -1.40095,6.78357 -1.07279,0.89029 -0.69926,1.65805 0.95757,1.96887 2.44331,0.4745 4.76856,2.37478 6.35826,4.56923 1.97524,2.23755 5.27377,8.90744 6.5009,13.14545 1.3287,4.58874 1.98708,10.28759 1.64538,14.24564 -0.92135,10.67241 -8.97152,21.57044 -19.16266,25.94105 -3.15055,1.35117 -7.00618,2.60082 -8.7638,2.84117 -6.95502,0.95113 -10.27758,1.17894 -17.19999,1.18236 -8.6681,0.003 -9.55237,0.22837 -10.48049,2.6572 -0.57453,1.50351 -0.54697,8.32538 0.0486,12.01995 0.24701,1.53228 0.53573,3.43646 0.64131,4.23177 0.10557,0.79528 0.3035,1.6257 0.43925,1.84536 0.13574,0.21966 0.36556,1.40523 0.51108,2.63499 0.14551,1.2297 0.45106,3.05173 0.67902,4.04936 0.22796,0.99764 0.75406,3.29571 1.16944,5.10615 1.62572,6.98769 6.59728,11.28373 14.12421,13.69478 1.42169,0.31816 2.90111,0.74067 3.28765,0.93948 0.71431,0.36727 6.48873,2.21856 7.73079,2.4784 4.28425,0.89623 9.71335,4.55303 11.27942,7.59799 1.6964,3.2983 1.0229,4.03979 -4.25039,4.68291 -0.49883,0.0609 -15.39525,0.23019 -33.1034,0.37621 -17.708129,0.14603 -37.139319,0.38574 -43.180831,0.5333 -6.041538,0.14756 -12.529791,0.12372 -14.418241,-0.0532 -2.990109,-0.28019 -3.609758,-0.49725 -4.794538,-1.68206 -1.196502,-1.19647 -1.282393,-1.44973 -0.718302,-2.0991 0.35283,-0.40608 0.549265,-0.9921 0.436666,-1.30275 -0.23971,-0.66159 1.970238,-2.65573 4.460708,-4.02458 0.961591,-0.52858 2.004918,-1.16641 2.31924,-1.41851 1.303139,-1.04529 8.656899,-4.62288 12.84986,-6.25131 10.45991,-4.06239 11.414392,-6.1391 9.582361,-20.84472 -0.936019,-7.51343 -2.813724,-13.53074 -4.998146,-16.01814 -3.459278,-3.93913 -3.580182,-4.00544 -8.345741,-4.58783 -8.160081,-0.99722 -15.064285,-3.18395 -17.076994,-5.40794 -0.649491,-0.71772 -0.694015,-1.16998 -0.291457,-2.96622 0.803921,-3.58726 0.391226,-3.89692 -5.199166,-3.89692 -7.033138,0 -9.375819,-0.64535 -14.38,-3.96513 -1.63267,-1.08313 -4.864989,-5.24622 -5.056537,-6.51279 -0.0524,-0.34753 -0.245451,-0.87311 -0.429432,-1.16737 -0.46173,-0.73868 -1.209045,-6.89974 -1.276924,-10.52545 -0.0929,-4.96262 1.505553,-10.27528 3.810103,-12.66331 1.6622,-1.72242 6.21683,-4.61832 7.263638,-4.61832 2.15514,0 2.407039,-2.22213 0.979268,-8.61602 -0.912699,-4.0872 -1.025538,-14.68804 -0.194818,-18.2547 1.112329,-4.77605 2.188448,-7.92911 3.983217,-11.6706 1.377561,-2.87179 6.14825,-7.09746 10.261391,-9.08833 3.914928,-1.89495 9.270857,-3.30182 10.957986,-2.87838 1.040421,0.26113 3.791254,-1.97541 3.811653,-3.09904 0.005,-0.32014 0.605663,-1.60342 1.331704,-2.85047 0.726009,-1.24706 1.825855,-3.19486 2.444295,-4.32893 1.213268,-2.22482 4.972706,-6.328882 7.580415,-8.27495 2.57424,-1.921092 7.367675,-4.264179 10.479464,-5.12217 2.119241,-0.58429 4.940749,-0.81915 10.80399,-0.902271 0.998815,-0.0137 1.905352,-0.0229 2.736784,-0.0217 z"
       id="path892-9"
       inkscape:connector-curvature="0"
       inkscape:export-filename="/home/danman/path892-9.png"
       inkscape:export-xdpi="96"
       inkscape:export-ydpi="96" />
    <path
       style="fill:#ffffff;fill-opacity:1;stroke:#000000;stroke-width:5.16111469;stroke-miterlimit:4;stroke-dasharray:none;stroke-opacity:1"
       d="M -15.373047 -515.71094 L -15.373047 235.03516 L 735.37305 235.03516 L 735.37305 -515.71094 L -15.373047 -515.71094 z M 406.63281 -483.34961 C 425.47701 -482.99547 447.67409 -467.25117 472.33789 -436.75 C 477.21065 -430.72388 500.42564 -394.98671 504.08203 -387.88086 C 505.82364 -384.49622 509.42388 -379.14193 512.08398 -375.98047 C 514.74409 -372.81918 519.02511 -366.29979 521.59961 -361.49219 C 528.18411 -349.19638 541.26012 -329.57517 544.61914 -326.94922 C 546.17215 -325.73503 553.25035 -324.20878 560.34766 -323.55273 C 581.90589 -321.56041 598.48563 -311.94381 623.23828 -287.07812 C 646.92753 -263.28096 683.23222 -221.02184 694.09961 -204.5957 C 703.36043 -190.59775 706.38947 -181.33789 706.22461 -167.53711 C 706.04017 -152.13526 701.13648 -139.11378 691.40234 -128.19336 C 686.79548 -123.02501 681.35351 -116.8079 679.30859 -114.375 C 677.26372 -111.9421 674.01989 -109.95117 672.09766 -109.95117 C 670.17535 -109.95117 668.59961 -109.25474 668.59961 -108.4043 C 668.59961 -106.84311 649.9619 -92.257812 647.9668 -92.257812 C 647.37458 -92.257812 643.49915 -90.015587 639.35547 -87.273438 C 635.21178 -84.531292 625.73647 -80.079736 618.30078 -77.382812 C 610.8652 -74.685881 603.98768 -71.685072 603.01562 -70.712891 C 602.04357 -69.74091 601.04532 -62.908373 600.79492 -55.533203 C 600.5451 -48.158037 598.84532 -36.374066 597.01758 -29.345703 C 593.50666 -15.844748 573.19563 27.667969 570.4043 27.667969 C 569.50163 27.667969 568.23534 29.764498 567.5918 32.328125 C 566.94829 34.891566 556.73376 46.998721 544.89258 59.234375 C 524.99662 79.792601 523.44999 81.93627 524.5332 87.501953 C 525.17818 90.814426 526.4534 93.823034 527.36328 94.183594 C 528.27316 94.543972 529.01367 95.919097 529.01367 97.240234 C 529.01367 100.70153 546.16816 116.42574 556.53711 122.46875 C 616.39496 158.40092 572.98678 195.15324 516.63867 166.7832 C 505.99991 161.11274 501.64711 157.06812 493.24609 145.03516 C 489.78148 140.07264 483.39411 138.32303 462.17188 136.5332 C 456.22483 136.03172 447.37744 135.25897 442.51172 134.8125 C 437.64592 134.36622 410.44051 133.43422 382.05664 132.74023 C 365.92765 132.35021 322.46344 135.28523 335.26562 145.10352 C 346.26983 148.30944 359.6288 156.85332 365.69141 164.56055 C 370.14144 170.21803 371.35999 186.16586 367.8457 192.73242 C 363.12356 201.55573 343.47098 202.51835 265.2207 197.76953 C 210.51183 194.44939 202.13191 193.61889 197.30078 191.02734 C 195.38484 189.99972 189.57868 187.22986 184.40039 184.87305 C 179.2221 182.51604 168.82436 174.93503 161.29297 168.02344 C 153.76169 161.11205 146.8866 155.45508 146.01367 155.45508 C 145.14074 155.45508 142.71136 153.87086 140.61523 151.93359 C 136.96367 148.55859 118.97397 135.91571 109.4707 130.04688 C 105.39798 127.5318 104.32436 127.68998 98.814453 131.61328 C 93.352318 135.50277 91.806728 135.74062 84.595703 133.79883 C 72.400154 130.51486 59.598561 121.73263 45.191406 106.76367 C 29.122492 90.068206 19.745074 75.614354 14.232422 59.048828 C 8.2964444 41.211125 9.0165938 30.306138 16.585938 23.392578 C 19.83692 20.423364 24.841856 17.479706 27.708984 16.849609 C 35.885162 15.05389 51.675728 19.462913 57.701172 25.224609 C 62.860072 30.157634 63.308325 30.247363 66.548828 27.005859 C 69.24325 24.310896 69.423485 23.261659 67.408203 22.015625 C 65.346407 20.74049 65.278209 16.121194 67.058594 -2 C 68.270873 -14.338474 69.795151 -25.758928 70.445312 -27.380859 C 71.095482 -29.002794 71.87029 -33.868203 72.166016 -38.193359 C 77.539283 -97.305186 101.33987 -163.78669 150.14844 -203.94531 C 178.23343 -225.4706 208.00253 -238.05334 246.73828 -244.77148 C 283.44231 -251.13731 361.04947 -244.04286 409.07812 -229.92969 C 421.80327 -226.19039 428.12694 -227.357 436.59766 -235.00977 C 443.64266 -241.37482 444.35123 -242.84909 443.45117 -249.26367 C 442.8991 -253.19838 442.18715 -259.51237 441.86914 -263.29688 C 441.2338 -270.8478 431.55727 -297.92461 427.81641 -302.61719 C 426.52335 -304.23912 423.67606 -309.2983 421.48828 -313.85938 C 417.44963 -322.27946 409.72682 -333.40163 397.29297 -348.7168 C 393.50849 -353.37832 387.75944 -360.53735 384.51562 -364.62305 C 381.27173 -368.70874 374.06184 -377.33162 368.49219 -383.78711 C 352.91828 -401.83836 347.24061 -414.65378 347.28516 -431.67383 C 347.32737 -448.72966 349.50669 -452.03125 360.72656 -452.03125 C 369.07231 -452.03125 373.55205 -449.78574 385.26367 -439.7207 C 391.15357 -434.6589 392.24157 -434.34317 394.83984 -436.94141 C 397.43812 -439.53983 397.18899 -440.64017 392.62109 -446.62891 C 389.78645 -450.3452 387.46484 -454.9083 387.46484 -456.76953 C 387.46484 -458.63072 386.56116 -461.84546 385.45508 -463.91211 C 383.78842 -467.02621 384.79872 -469.02359 391.35352 -475.57812 C 397.8763 -482.10083 400.55254 -483.46402 406.63281 -483.34961 z "
       transform="scale(0.26458333)"
       id="path892-6"
       inkscape:export-filename="/home/danman/Projects/grabolo-toss/img/rabbit.png"
       inkscape:export-xdpi="96"
       inkscape:export-ydpi="96" />
    <path
       style="fill:#ffffff;fill-opacity:1;stroke:#000000;stroke-width:1.36554492;stroke-miterlimit:4;stroke-dasharray:none;stroke-opacity:1"
       d="M -236.90091,301.82357 V 500.45796 H -38.266027 V 301.82357 Z"
       id="path949"
       inkscape:export-filename="/home/danman/path949.png"
       inkscape:export-xdpi="96"
       inkscape:export-ydpi="96" />
  </g>
</svg>
